D:\school\WTK\thesis\model\3dpredictsim\Results\batch_windlass\Pog_s1_tmt_aCst_d05_k500_WL30_ig24_pas_GRF.mot
nRows=15
nColumns=19

name D:\school\WTK\thesis\model\3dpredictsim\Results\batch_windlass\Pog_s1_tmt_aCst_d05_k500_WL30_ig24_pas_GRF.mot
datacolumns 19
datarows 15
range 0.0000000000 0.1531403730
endheader
time 	ground_force_vx	ground_force_vy	ground_force_vz	ground_force_px	ground_force_py	ground_force_pz	1_ground_force_vx	1_ground_force_vy	1_ground_force_vz	1_ground_force_px	1_ground_force_py	1_ground_force_pz	ground_torque_x	ground_torque_y	ground_torque_z	1_ground_torque_x	1_ground_torque_y	1_ground_torque_z
        0.0000000000	      -99.5965758395	       77.9679022955	       29.0641880857	        0.1397125442	        0.0000000000	        0.0427825588	       82.2020361264	      411.4914129755	       -3.8679990309	       -0.3339413025	        0.0000000000	       -0.0334291422	        0.0000000000	        0.0000000000	        0.0000000000	        0.0000000000	        0.0000000000	        0.0000000000	
        0.0109385981	     -150.4391512675	      160.8560838748	       66.5078653709	        0.1499881751	        0.0000000000	        0.0414268388	       53.9895336931	      314.1002897073	      -12.1093336718	       -0.3269028173	        0.0000000000	       -0.0306022207	        0.0000000000	        0.0000000000	        0.0000000000	        0.0000000000	        0.0000000000	        0.0000000000	
        0.0218771961	      -69.9041497717	      362.3835496486	       25.5218235970	        0.1640796623	        0.0000000000	        0.0420911133	       25.6543234188	      216.6061481867	      -13.7748526973	       -0.3154861222	        0.0000000000	       -0.0250473954	        0.0000000000	        0.0000000000	        0.0000000000	        0.0000000000	        0.0000000000	        0.0000000000	
        0.0328157942	      -72.2440003287	      611.3766631756	       -4.6623083152	        0.1724557154	        0.0000000000	        0.0437872588	        8.8077421190	      161.8273622674	      -13.5866036865	       -0.3067893260	        0.0000000000	       -0.0199966087	        0.0000000000	        0.0000000000	        0.0000000000	        0.0000000000	        0.0000000000	        0.0000000000	
        0.0437543923	      -92.7110372307	      791.0441094236	      -13.3062814244	        0.1785837216	        0.0000000000	        0.0447096098	        2.4864464927	      127.1534815859	      -12.2427845618	       -0.3068622130	        0.0000000000	       -0.0200701351	        0.0000000000	        0.0000000000	        0.0000000000	        0.0000000000	        0.0000000000	        0.0000000000	
        0.0546929904	     -116.1130381859	      883.1592642521	      -17.5435772996	        0.1854122049	        0.0000000000	        0.0449408285	       -3.6739900395	       84.7298056624	      -10.2072471748	       -0.3067323411	        0.0000000000	       -0.0200403354	        0.0000000000	        0.0000000000	        0.0000000000	        0.0000000000	        0.0000000000	        0.0000000000	
        0.0656315884	     -123.4468286979	      925.8243102557	      -16.6908641824	        0.1929171936	        0.0000000000	        0.0445765814	      -12.0379891952	       34.9084307821	       -5.4510675932	       -0.3078785960	        0.0000000000	       -0.0199538566	        0.0000000000	        0.0000000000	        0.0000000000	        0.0000000000	        0.0000000000	        0.0000000000	
        0.0765701865	     -119.5971585312	      907.8213857256	      -15.1185457464	        0.1985399643	        0.0000000000	        0.0440753144	        0.1180437716	       -0.1169089332	        0.0015427511	        0.0000000000	        0.0000000000	        0.0000000000	        0.0000000000	        0.0000000000	        0.0000000000	        0.0000000000	        0.0000000000	        0.0000000000	
        0.0875087846	     -102.1552898573	      853.2038271281	      -14.8334917964	        0.2021598889	        0.0000000000	        0.0436812318	        0.0002915731	       -0.0002393250	       -0.0000127376	        0.0000000000	        0.0000000000	        0.0000000000	        0.0000000000	        0.0000000000	        0.0000000000	        0.0000000000	        0.0000000000	        0.0000000000	
        0.0984473826	      -85.7995997576	      792.8065056934	      -15.3757466406	        0.2054312835	        0.0000000000	        0.0434221652	        0.0000827579	       -0.0000591578	       -0.0000048935	        0.0000000000	        0.0000000000	        0.0000000000	        0.0000000000	        0.0000000000	        0.0000000000	        0.0000000000	        0.0000000000	        0.0000000000	
        0.1093859807	      -72.3340333945	      740.9667984643	      -15.5427415735	        0.2086054852	        0.0000000000	        0.0432797507	        0.0003649273	       -0.0002345278	       -0.0000245289	        0.0000000000	        0.0000000000	        0.0000000000	        0.0000000000	        0.0000000000	        0.0000000000	        0.0000000000	        0.0000000000	        0.0000000000	
        0.1203245788	      -60.4770823672	      699.1245276377	      -16.2755472631	        0.2118411736	        0.0000000000	        0.0432157007	        0.0069156623	       -0.0040849937	       -0.0005015357	        0.0000000000	        0.0000000000	        0.0000000000	        0.0000000000	        0.0000000000	        0.0000000000	        0.0000000000	        0.0000000000	        0.0000000000	
        0.1312631769	      -50.4109433520	      665.2858568175	      -16.9467379571	        0.2152649188	        0.0000000000	        0.0432111767	       -0.0355213825	        0.0195926305	        0.0027238661	        0.0000000000	        0.0000000000	        0.0000000000	        0.0000000000	        0.0000000000	        0.0000000000	        0.0000000000	        0.0000000000	        0.0000000000	
        0.1422017749	      -41.3467981454	      638.5333333673	      -17.9134701144	        0.2193360847	        0.0000000000	        0.0432321581	       -0.0310663864	        0.0161838590	        0.0024948855	        0.0000000000	        0.0000000000	        0.0000000000	        0.0000000000	        0.0000000000	        0.0000000000	        0.0000000000	        0.0000000000	        0.0000000000	
        0.1531403730	      -34.5152490285	      618.0770185240	      -18.9207824665	        0.2241396561	        0.0000000000	        0.0432381702	       -0.0194549278	        0.0096447483	        0.0016282251	        0.0000000000	        0.0000000000	        0.0000000000	        0.0000000000	        0.0000000000	        0.0000000000	        0.0000000000	        0.0000000000	        0.0000000000	
